<svg xmlns="http://www.w3.org/2000/svg" width="61" height="50" viewBox="0 0 61 50"><defs><style>.a,.b{fill:#fff;}.a{opacity:0;}</style></defs><rect class="a" width="61" height="50"/><g transform="translate(20 13.462)"><path class="b" d="M17.432,8.611a2.576,2.576,0,0,1,1.284,0V.262H12.811V4.6h4.621Z" transform="translate(0 -0.262)"/><path class="b" d="M6.669,10.045a3.737,3.737,0,1,0-5.864,0l2.932,3.686ZM2.881,7.731a.856.856,0,1,1,.856.856A.857.857,0,0,1,2.881,7.731Z" transform="translate(0 -0.262)"/><path class="b" d="M3.737,17.17a1.284,1.284,0,1,0,1.284,1.284A1.286,1.286,0,0,0,3.737,17.17Z" transform="translate(0 -0.262)"/><path class="b" d="M17.519,14.134H10.387a1.2,1.2,0,0,1,0-2.394h5.2a2.576,2.576,0,0,1,0-1.284h-5.2a2.481,2.481,0,0,0,0,4.962h7.132a1.2,1.2,0,0,1,0,2.394H6.224a2.576,2.576,0,0,1,0,1.284h11.3a2.481,2.481,0,1,0,0-4.962Z" transform="translate(0 -0.262)"/><path class="b" d="M16.79,11.1a1.284,1.284,0,1,0,1.284-1.284A1.286,1.286,0,0,0,16.79,11.1Z" transform="translate(0 -0.262)"/></g></svg>