<svg xmlns="http://www.w3.org/2000/svg" width="17.998" height="17.998" viewBox="0 0 17.998 17.998"><defs><style>.a{fill:#fff;}</style></defs><g transform="translate(0 -0.008)"><path class="a" d="M285.019,209.133h-7.124a.562.562,0,0,1,0-1.125h7.124a.562.562,0,1,1,0,1.125Zm0,0" transform="translate(-267.584 -200.688)"/><path class="a" d="M400.566,134.72a.563.563,0,0,1-.4-.961l2.415-2.415-2.415-2.415a.563.563,0,1,1,.8-.8l2.812,2.812a.563.563,0,0,1,0,.8l-2.812,2.812A.559.559,0,0,1,400.566,134.72Zm0,0" transform="translate(-385.943 -123.464)"/><path class="a" d="M6,18.006a1.545,1.545,0,0,1-.465-.07l-4.513-1.5A1.514,1.514,0,0,1,0,15.006V1.508A1.5,1.5,0,0,1,1.5.008a1.547,1.547,0,0,1,.465.07l4.513,1.5A1.513,1.513,0,0,1,7.5,3.008v13.5a1.5,1.5,0,0,1-1.5,1.5ZM1.5,1.133a.376.376,0,0,0-.375.375v13.5a.39.39,0,0,0,.26.361l4.492,1.5A.407.407,0,0,0,6,16.881a.376.376,0,0,0,.375-.375V3.008a.39.39,0,0,0-.26-.361l-4.492-1.5A.407.407,0,0,0,1.5,1.133Zm0,0" transform="translate(0 0)"/><path class="a" d="M37.166,6.007a.563.563,0,0,1-.562-.562V2.07a.939.939,0,0,0-.937-.937H27.23a.562.562,0,0,1,0-1.125h8.436A2.064,2.064,0,0,1,37.729,2.07V5.445A.563.563,0,0,1,37.166,6.007Zm0,0" transform="translate(-25.731)"/><path class="a" d="M184.894,283.339h-3a.562.562,0,1,1,0-1.125h3a.939.939,0,0,0,.937-.937V277.9a.562.562,0,1,1,1.125,0v3.375A2.064,2.064,0,0,1,184.894,283.339Zm0,0" transform="translate(-174.958 -267.583)"/></g></svg>