<svg xmlns="http://www.w3.org/2000/svg" width="20" height="19.476" viewBox="0 0 20 19.476"><defs><style>.a{fill:#fff;}</style></defs><g transform="translate(0 -0.262)"><path class="a" d="M17.432,8.611a2.576,2.576,0,0,1,1.284,0V.262H12.811V4.6h4.621Z"/><path class="a" d="M6.669,10.045a3.737,3.737,0,1,0-5.864,0l2.932,3.686ZM2.881,7.731a.856.856,0,1,1,.856.856A.857.857,0,0,1,2.881,7.731Z"/><path class="a" d="M3.737,17.17a1.284,1.284,0,1,0,1.284,1.284A1.286,1.286,0,0,0,3.737,17.17Z"/><path class="a" d="M17.519,14.134H10.387a1.2,1.2,0,0,1,0-2.394h5.2a2.576,2.576,0,0,1,0-1.284h-5.2a2.481,2.481,0,0,0,0,4.962h7.132a1.2,1.2,0,0,1,0,2.394H6.224a2.576,2.576,0,0,1,0,1.284h11.3a2.481,2.481,0,1,0,0-4.962Z"/><path class="a" d="M16.79,11.1a1.284,1.284,0,1,0,1.284-1.284A1.286,1.286,0,0,0,16.79,11.1Z"/></g></svg>